<?xml version="1.0" encoding="UTF-8" standalone="yes"?>
<svg xmlns="http://www.w3.org/2000/svg" width="32" height="32" viewBox="0 0 100 100">
  <g transform="translate(0,0) scale(1)">
    <defs>
      <linearGradient id="linear-gradient" gradientTransform="rotate(90)">
        <stop offset="0%" stop-color="transparent"/>
        <stop offset="15%" stop-color="#5e89ae"/>
        <stop offset="50%" stop-color="#ffffff"/>
        <stop offset="85%" stop-color="#5e89ae"/>
        <stop offset="100%" stop-color="transparent"/>
      </linearGradient>
      <linearGradient id="linear-gradient2">
        <stop offset="0%" stop-color="#5e89ae"/>
        <stop offset="10%" stop-color="#ffffff"/>
        <stop offset="50%" stop-color="#ffffff"/>
        <stop offset="90%" stop-color="#ffffff"/>
        <stop offset="100%" stop-color="#5e89ae"/>
      </linearGradient>
    </defs>
    <rect x="30" y="71" height="18" width="10" fill="url(#linear-gradient2)"/>
    <rect x="0" y="80" height="18" width="100" fill="url(#linear-gradient)"/>
    <rect x="32" y="71" height="18" width="6" fill="#ffffff"/>
  </g>
  <g transform="translate(4,14) scale(0.14)">
    <path d="M445.522,88.989h-259.23c-5.832,0-11.24-3.318-14.26-8.749l-13.88-24.957 c-3.021-5.432-8.427-8.749-14.259-8.749H45.998c-9.208,0-16.671,8.126-16.671,18.15v362.151c0,10.024,7.463,18.15,16.671,18.15 h399.523c9.207,0,16.671-8.126,16.671-18.15V107.14C462.192,97.116,454.728,88.989,445.522,88.989z" style="fill:#F6C358;"/>
    <rect x="55.383" y="133.12" style="fill:#EBF0F3;" width="385.536" height="122.092"/>
    <rect x="55.383" y="150.17" style="fill:#FFFFFF;" width="385.536" height="122.092"/>
    <path d="M474.806,216.429H16.714c-10.557,0-17.956,8.348-16.541,18.538l27.158,195.639 c1.107,7.974,9.46,14.379,18.667,14.379h399.523c9.207,0,17.56-6.405,18.667-14.379l27.158-195.639 C492.761,224.777,485.362,216.429,474.806,216.429z" style="fill:#FCD462;"/>
  </g>
  <g transform="translate(50,0) scale(1)">
    <polygon points="4,34 26,4 46,4 32,26 46,26 6,70 20,34" fill="transparent" stroke="#ffffff" stroke-width="6" stroke-linejoin="round" style="opacity: 0.5;"/>
    <polygon points="4,34 26,4 46,4 32,26 46,26 6,70 20,34" fill="#f67d11" stroke="#d6632b" stroke-width="3" stroke-linejoin="round"/>
  </g>
</svg>