<?xml version="1.0" encoding="UTF-8" standalone="yes"?>
<svg xmlns="http://www.w3.org/2000/svg" width="32" height="32" viewBox="0 0 100 100">
  <g transform="translate(0,0) scale(1)">
    <rect x="5" y="5" width="22" height="32" fill="#fac75c" stroke="#406898" stroke-width="3" rx="2" ry="2"/>
    <rect x="27" y="5" width="22" height="32" fill="#fac75c" stroke="#406898" stroke-width="3" rx="2" ry="2"/>
    <rect x="49" y="5" width="22" height="32" fill="#fac75c" stroke="#406898" stroke-width="3" rx="2" ry="2"/>
    <rect x="71" y="5" width="22" height="32" fill="#fac75c" stroke="#406898" stroke-width="3" rx="2" ry="2"/>
    <rect x="46" y="2" width="50" height="56" fill="transparent" stroke="#ffde00" stroke-width="3" rx="2" ry="2"/>
  </g>
  <g transform="translate(26,69) scale(1)">
    <rect x="0" y="0" width="72" height="25" fill="#a92a2a" stroke="#a92a2a" stroke-width="0"/>
    <text x="3" y="22" fill="#ffffff" font-family="monospace" font-weight="bold" font-size="30">JSON</text>
  </g>
  <g transform="translate(27,-20) scale(1)">
    <polygon points="36,54 44,54 44,72 54,72 40,90 26,72 36,72" fill="transparent" stroke="#ffffff" stroke-width="6" stroke-linejoin="round" style="opacity: 0.5;"/>
    <polygon points="36,54 44,54 44,72 54,72 40,90 26,72 36,72" fill="#7078c3" stroke="#5f66a5" stroke-width="3" stroke-linejoin="round"/>
  </g>
</svg>