<?xml version="1.0" encoding="UTF-8" standalone="yes"?>
<svg xmlns="http://www.w3.org/2000/svg" width="32" height="32" viewBox="0 0 100 100">
  <g transform="translate(-16,-16) scale(1)">
    <rect x="20" y="20" width="76" height="76" fill="transparent" stroke="#ffffff" stroke-width="10" stroke-linejoin="round" style="opacity: 0.5;"/>
    <rect x="20" y="20" width="76" height="76" fill="#ffffff" stroke="#266092" stroke-width="3" stroke-linejoin="round"/>
    <rect x="20" y="20" width="76" height="18" fill="#81a5c3" stroke="#266092" stroke-width="3" stroke-linejoin="round"/>
    <rect x="20" y="20" width="76" height="76" fill="transparent" stroke="#266092" stroke-width="3" stroke-linejoin="round"/>
    <line x1="46" y1="20" x2="46" y2="96" stroke="#266092" stroke-width="3"/>
    <line x1="70" y1="20" x2="70" y2="96" stroke="#266092" stroke-width="3"/>
    <line x1="20" y1="58" x2="96" y2="58" stroke="#266092" stroke-width="3"/>
    <line x1="20" y1="76" x2="96" y2="76" stroke="#266092" stroke-width="3"/>
  </g>
  <g transform="translate(-4,-4) scale(1)">
    <rect x="20" y="20" width="76" height="76" fill="transparent" stroke="#ffffff" stroke-width="10" stroke-linejoin="round" style="opacity: 0.5;"/>
    <rect x="20" y="20" width="76" height="76" fill="#ffffff" stroke="#266092" stroke-width="3" stroke-linejoin="round"/>
    <rect x="20" y="20" width="76" height="18" fill="#81a5c3" stroke="#266092" stroke-width="3" stroke-linejoin="round"/>
    <rect x="20" y="20" width="76" height="76" fill="transparent" stroke="#266092" stroke-width="3" stroke-linejoin="round"/>
    <line x1="46" y1="20" x2="46" y2="96" stroke="#266092" stroke-width="3"/>
    <line x1="70" y1="20" x2="70" y2="96" stroke="#266092" stroke-width="3"/>
    <line x1="20" y1="58" x2="96" y2="58" stroke="#266092" stroke-width="3"/>
    <line x1="20" y1="76" x2="96" y2="76" stroke="#266092" stroke-width="3"/>
  </g>
  <g transform="translate(26,42) scale(1.23)">
    <polygon points="2,2 16,16 34,16 34,6 54,24 34,40 34,30 16,30" fill="transparent" stroke="#ffffff" stroke-width="6" stroke-linejoin="round" style="opacity: 0.5;"/>
    <polygon points="2,2 16,16 34,16 34,6 54,24 34,40 34,30 16,30" fill="#7078c3" stroke="#5f66a5" stroke-width="3" stroke-linejoin="round"/>
  </g>
</svg>