<?xml version="1.0" encoding="UTF-8" standalone="yes"?>
<svg xmlns="http://www.w3.org/2000/svg" width="32" height="32" viewBox="0 0 100 100">
  <g transform="translate(-26,-14) scale(2)">
    <path fill="#d03" d="M33.67,38a3.93,3.93,0,0,1-3.82,3.45A3.05,3.05,0,0,1,26.76,38a3.93,3.93,0,0,1,3.82-3.46A3,3,0,0,1,33.67,38Z"/>
    <path fill="#d03" d="M41.49,29.35h1.73L43,31.08l5.55-3.46-4.82-3.46-.18,1.73h-1.7c-4.81,0-7.18,1.59-6.27,5.6.47,2.07,1,3.26,1.88,6.51,1.21,4.3-2.44,8.64-8.19,8.64-7.12,0-10-7.32-3.93-21.42a86.52,86.52,0,0,1,4.87-9.52A4.83,4.83,0,0,0,29,15.52a5.85,5.85,0,0,0-4.76,2.6c-.13.19-.24.39-.36.59-4.52,7.59-6.51,13.71-7.27,17.55-1.88,9.35,1.74,17.24,12,17.28,9,0,18.18-8.68,13.92-17.28C40.44,32.12,39.05,29.35,41.49,29.35Z"/>
  </g>
  <polygon points="76,42 96,66 76,92" fill="#739c00" stroke="#739c00" stroke-width="0" stroke-linejoin="round"/>
</svg>